<?xml version="1.0" standalone="no"?>
<!DOCTYPE svg PUBLIC "-//W3C//DTD SVG 20010904//EN"
 "http://www.w3.org/TR/2001/REC-SVG-20010904/DTD/svg10.dtd">
<svg version="1.0" xmlns="http://www.w3.org/2000/svg"
 width="1024.000000pt" height="1024.000000pt" viewBox="0 0 1024.000000 1024.000000"
 preserveAspectRatio="xMidYMid meet">
<metadata>
Created by potrace 1.16, written by Peter Selinger 2001-2019
</metadata>
<g transform="translate(0.000000,1024.000000) scale(0.100000,-0.100000)"
fill="#000000" stroke="none">
<path d="M5734 9617 c-135 -52 -210 -144 -233 -288 -21 -130 18 -239 118 -331
80 -74 148 -101 257 -102 70 0 89 4 140 30 69 34 78 58 45 123 -30 57 -45 62
-116 39 -93 -29 -163 -12 -223 56 -58 66 -63 149 -16 233 31 53 98 88 170 87
54 -1 79 -11 135 -55 20 -16 44 -29 53 -29 9 0 34 16 56 36 54 49 54 83 3 131
-68 62 -136 88 -238 90 -74 2 -101 -1 -151 -20z"/>
<path d="M4373 9618 c-31 -15 -35 -36 -23 -110 5 -34 10 -66 10 -70 0 -5 -13
-8 -28 -8 -39 0 -52 -17 -52 -69 0 -70 18 -96 65 -97 l40 0 13 -95 c24 -172
69 -223 198 -223 96 0 124 18 124 78 0 62 -25 90 -77 88 -23 -1 -45 4 -51 11
-12 14 -37 155 -29 163 2 3 28 9 57 13 77 12 97 50 69 130 -14 41 -42 52 -104
40 -26 -5 -49 -8 -50 -7 -1 2 -7 34 -13 71 -6 38 -16 75 -23 83 -14 17 -93 18
-126 2z"/>
<path d="M4880 9495 c-70 -22 -103 -63 -108 -132 -7 -113 53 -178 189 -206 43
-9 64 -18 64 -27 0 -25 -76 -24 -134 0 -62 27 -79 24 -109 -20 -45 -67 -16
-107 100 -137 58 -15 76 -16 139 -5 129 22 174 65 174 165 -1 113 -35 146
-178 175 -69 15 -82 20 -82 37 0 18 6 20 55 18 30 -1 71 -4 91 -8 32 -6 39 -3
58 21 34 44 25 84 -23 108 -52 25 -174 31 -236 11z"/>
<path d="M4068 9375 c-20 -14 -41 -33 -47 -42 -9 -17 -11 -17 -30 1 -39 35
-151 -7 -151 -57 0 -12 25 -114 54 -226 38 -144 59 -209 72 -218 21 -16 67
-12 111 9 39 18 40 52 4 193 -39 156 -28 185 73 185 36 0 48 5 65 26 32 41 25
121 -13 146 -26 17 -101 8 -138 -17z"/>
<path d="M6917 9342 c-25 -27 -49 -91 -42 -113 8 -24 75 -59 113 -59 32 0 50
20 70 79 15 43 -3 76 -53 97 -46 19 -69 18 -88 -4z"/>
<path d="M6347 9299 c-175 -43 -267 -232 -188 -387 51 -100 135 -151 247 -152
159 0 274 117 274 279 -1 165 -173 300 -333 260z m103 -184 c50 -26 64 -79 35
-134 -17 -33 -33 -41 -84 -41 -93 0 -125 130 -44 174 36 19 57 20 93 1z"/>
<path d="M3632 9255 c-19 -8 -38 -27 -45 -43 -11 -26 -15 -28 -37 -20 -71 26
-166 -30 -211 -125 -82 -174 25 -364 215 -384 66 -7 139 24 165 68 17 31 26
35 36 19 20 -33 137 13 143 56 3 20 -117 345 -152 413 -13 25 -23 31 -49 31
-17 -1 -47 -7 -65 -15z m14 -267 c39 -76 -39 -153 -114 -114 -47 24 -57 84
-22 129 36 46 109 38 136 -15z"/>
<path d="M2875 9138 c-60 -22 -275 -150 -285 -168 -8 -14 -6 -29 4 -54 19 -47
273 -493 303 -533 29 -40 52 -41 109 -8 66 39 66 53 8 157 l-33 58 63 35 c121
67 178 151 178 260 1 97 -58 192 -147 237 -47 25 -155 33 -200 16z m127 -179
c11 -6 26 -26 34 -44 16 -38 8 -70 -22 -96 -17 -14 -112 -69 -119 -69 -10 0
-84 145 -78 151 4 4 33 22 63 38 59 33 89 38 122 20z"/>
<path d="M6806 9108 c-7 -13 -51 -107 -96 -210 -93 -211 -95 -225 -30 -258 48
-25 82 -25 103 -2 14 16 166 349 182 400 19 63 -124 125 -159 70z"/>
<path d="M7062 9003 c-39 -40 -222 -366 -222 -396 0 -30 34 -60 86 -77 32 -11
38 -10 58 9 12 11 44 60 70 107 26 47 57 95 67 105 25 25 79 24 113 -2 42 -33
35 -74 -28 -184 -64 -111 -70 -128 -56 -155 12 -22 79 -60 108 -60 10 0 28 10
39 23 33 36 130 218 143 266 38 146 -80 304 -209 278 -25 -5 -28 -3 -24 16 5
27 -27 60 -80 82 -37 15 -38 15 -65 -12z"/>
<path d="M4900 8904 c-25 -2 -101 -8 -170 -14 -625 -53 -1284 -300 -1822 -682
-419 -298 -794 -707 -1053 -1148 -72 -122 -125 -232 -119 -242 4 -6 2 -8 -3
-5 -13 8 -27 -23 -16 -34 4 -4 58 -9 118 -10 97 -1 110 1 109 16 -1 9 0 14 4
11 3 -3 10 4 17 17 27 50 58 103 110 187 244 394 587 758 980 1038 490 350
1114 580 1717 633 199 18 657 6 827 -20 465 -73 859 -207 1236 -420 501 -284
911 -665 1229 -1141 102 -153 108 -163 154 -248 l39 -73 120 -2 119 -2 -10 27
c-5 15 -14 24 -20 21 -5 -3 -6 -2 -3 4 13 21 -145 298 -276 485 -276 394 -630
738 -1022 993 -499 325 -1050 523 -1640 591 -125 14 -533 26 -625 18z m-2975
-2114 c-3 -6 -50 -10 -106 -10 -59 0 -99 4 -99 10 0 6 42 10 106 10 67 0 103
-4 99 -10z m6545 0 c10 -7 -17 -10 -87 -10 -57 0 -105 4 -108 10 -8 13 175 13
195 0z"/>
<path d="M5289 8085 c-3 -2 -122 -9 -265 -15 -142 -5 -302 -17 -354 -25 -406
-66 -848 -276 -1175 -558 -99 -86 -115 -96 -160 -102 -27 -4 -63 -14 -79 -22
-37 -19 -426 -355 -426 -368 0 -24 183 120 332 262 36 35 82 70 102 78 63 27
443 75 588 75 59 0 68 -3 101 -32 85 -78 290 -305 333 -370 l47 -70 4 -142 c2
-77 1 -165 -2 -194 l-7 -53 -32 43 c-39 51 -53 104 -59 214 -5 86 -14 113 -53
154 -13 14 -63 82 -112 150 -94 133 -130 162 -115 93 8 -39 7 -321 -2 -358 -4
-19 -11 -20 -77 -17 -41 2 -87 10 -105 20 -30 15 -33 15 -52 -3 -12 -10 -21
-31 -21 -46 0 -15 -4 -30 -9 -34 -18 -11 -60 18 -71 49 -19 52 -52 119 -82
163 -15 23 -28 46 -28 52 0 7 -9 7 -26 -1 -17 -8 -28 -9 -32 -1 -5 7 -64 6
-192 -2 -102 -7 -181 -13 -176 -14 6 0 6 -5 0 -11 -6 -6 -55 -14 -110 -19 -58
-5 -115 -16 -136 -27 -32 -15 -38 -23 -38 -49 0 -18 13 -59 30 -91 16 -32 26
-62 22 -66 -5 -5 -48 -13 -98 -19 -171 -21 -205 -56 -309 -314 -66 -165 -175
-460 -175 -475 0 -5 9 -10 19 -10 20 0 51 -25 51 -41 0 -13 -57 -11 -66 2 -4
8 -9 7 -15 -2 -18 -28 -8 -67 26 -110 49 -61 58 -100 45 -201 -33 -259 -34
-442 -4 -677 17 -134 10 -171 -40 -220 -50 -48 -54 -89 -21 -203 58 -204 204
-578 262 -671 32 -50 71 -73 166 -93 43 -10 81 -22 83 -29 3 -6 -7 -36 -21
-66 -30 -64 -31 -94 -7 -134 24 -39 370 -343 424 -372 23 -13 53 -23 68 -23
48 0 84 -20 120 -66 41 -53 211 -213 320 -300 340 -274 736 -453 1130 -510
141 -20 904 -31 1023 -15 258 37 539 139 756 274 165 103 437 322 551 444 120
129 259 310 327 427 184 314 223 392 290 576 100 275 144 458 186 764 31 233
31 638 -1 846 -52 345 -108 553 -239 875 -95 236 -214 452 -327 592 -8 10 -45
56 -82 103 -160 201 -259 306 -387 411 -188 154 -340 254 -562 369 -262 136
-590 210 -929 210 -68 0 -125 -2 -127 -5z m411 -35 c149 -16 296 -51 446 -105
71 -26 134 -51 139 -55 6 -4 60 -34 120 -65 340 -179 682 -465 886 -740 79
-108 201 -298 252 -395 28 -52 63 -120 79 -150 34 -64 197 -497 221 -585 15
-56 40 -174 67 -320 33 -176 49 -647 30 -833 -18 -164 -80 -491 -117 -617 -61
-203 -182 -480 -338 -770 -126 -232 -340 -479 -615 -707 -265 -221 -595 -386
-930 -465 -130 -30 -408 -42 -595 -24 -510 49 -977 283 -1422 715 -35 33 -63
66 -63 73 0 22 47 38 65 23 8 -7 15 -18 15 -25 0 -7 7 -18 15 -25 12 -10 35
-8 117 9 188 38 272 58 393 91 66 18 136 36 155 40 37 8 166 43 240 65 25 7
57 16 73 19 26 6 36 29 17 41 -5 3 -25 -1 -45 -9 -20 -9 -71 -23 -113 -31 -42
-9 -120 -27 -172 -40 -294 -73 -333 -77 -338 -36 -5 33 11 45 61 43 40 -2 47
2 71 33 21 27 34 35 54 33 21 -2 27 1 28 17 2 38 4 42 30 53 14 7 23 16 19 21
-14 23 18 19 66 -9 35 -21 62 -30 83 -28 28 3 31 6 31 35 0 22 9 41 27 60 l27
27 143 -67 c176 -82 275 -111 443 -133 271 -35 574 10 790 117 398 196 658
442 842 794 65 125 183 405 183 434 0 8 10 25 22 38 17 18 23 41 29 115 4 51
12 116 18 143 17 78 26 391 13 466 -6 35 -14 97 -18 137 -5 62 -4 72 10 72 13
0 146 -88 166 -110 3 -3 25 -18 50 -35 25 -16 55 -38 67 -49 13 -11 25 -17 28
-15 2 3 -39 39 -92 79 -53 41 -122 98 -152 126 -31 29 -64 53 -75 55 -14 3
-29 36 -61 132 -78 232 -110 288 -329 589 -187 256 -306 378 -478 493 -196
132 -473 237 -693 262 -451 51 -906 -124 -1255 -481 -24 -25 -47 -46 -51 -46
-3 0 -8 89 -11 198 -6 238 -6 239 -156 412 -175 203 -253 281 -291 289 -19 3
-36 11 -38 17 -3 9 140 128 247 204 173 125 588 317 755 350 33 6 89 18 125
27 184 43 436 52 690 23z m-1280 -105 c-7 -8 -23 -15 -36 -15 -68 0 -340 -133
-514 -251 -108 -72 -243 -183 -299 -243 -18 -21 -32 -26 -70 -26 l-46 1 77 73
c180 172 555 378 838 461 59 18 65 18 50 0z m90 -50 c0 -2 -30 -21 -67 -41
-292 -159 -396 -225 -498 -317 -84 -75 -155 -116 -155 -89 0 15 188 164 288
230 106 69 189 115 327 179 90 41 105 47 105 38z m1039 -935 c10 -5 21 -23 24
-39 8 -39 25 -47 127 -60 47 -6 101 -13 121 -17 33 -6 37 -4 58 31 16 28 26
35 39 30 9 -3 44 -13 77 -22 85 -22 108 -39 100 -75 -5 -21 -2 -35 11 -49 23
-26 8 -25 -94 5 -151 46 -266 59 -455 53 -157 -5 -182 -8 -292 -40 -136 -38
-209 -72 -333 -153 -130 -85 -229 -169 -355 -302 -50 -52 -141 -197 -212 -335
-42 -81 -51 -84 -41 -13 5 28 33 85 87 172 89 142 124 188 213 282 80 84 56
79 -31 -8 -81 -79 -139 -152 -208 -260 -58 -91 -53 -86 -66 -73 -9 9 2 41 41
123 l53 111 -22 29 c-11 16 -21 33 -21 37 0 5 36 46 81 92 75 76 82 81 98 67
29 -26 64 -19 123 27 30 23 77 57 103 75 47 33 47 34 42 77 -6 41 -4 46 26 69
36 27 126 71 169 81 21 6 30 1 49 -24 19 -26 29 -31 65 -31 24 0 55 5 71 11
15 6 50 15 77 20 60 11 76 23 76 60 0 32 14 39 105 49 33 4 64 8 68 9 5 0 16
-3 26 -9z m-1781 -178 c2 -13 -3 -25 -13 -28 -22 -9 -29 1 -21 31 8 31 30 28
34 -3z m2006 7 c130 -22 243 -48 276 -62 34 -15 31 -15 -87 -16 -120 -1 -284
-28 -307 -51 -6 -6 -19 -10 -30 -10 -34 0 -184 -71 -296 -140 -74 -46 -131
-92 -198 -158 -51 -52 -100 -105 -109 -118 l-15 -24 -37 29 c-58 46 -142 70
-244 69 -108 -2 -123 8 -81 53 51 56 275 238 328 268 74 42 240 111 319 132
130 36 358 50 481 28z m-1934 -23 c0 -34 -10 -56 -25 -56 -22 0 -25 15 -12 49
14 37 37 41 37 7z m-255 -14 c85 -26 165 -92 165 -136 0 -9 11 -34 25 -54 16
-24 25 -50 25 -76 0 -35 6 -46 50 -87 37 -35 50 -54 50 -75 0 -16 7 -38 15
-48 20 -27 19 -79 -4 -124 -23 -46 -101 -320 -101 -356 0 -14 -3 -26 -7 -26
-24 -1 -149 -32 -217 -54 -50 -17 -85 -34 -95 -49 -59 -84 -98 -381 -80 -612
21 -274 46 -356 120 -392 53 -26 170 -53 230 -53 24 0 50 -4 56 -8 7 -4 17
-41 23 -82 14 -102 52 -239 100 -366 22 -59 37 -110 34 -115 -3 -5 -37 -33
-77 -63 -98 -74 -131 -111 -162 -179 -21 -45 -35 -62 -65 -77 -22 -11 -45 -20
-52 -20 -7 0 -26 -7 -42 -15 -16 -9 -30 -14 -31 -13 -1 2 -17 46 -34 98 -18
52 -50 124 -71 160 -59 98 -87 161 -132 304 -41 132 -65 186 -81 186 -35 0
133 -451 243 -652 22 -40 40 -80 40 -89 0 -20 -29 -29 -98 -29 -56 0 -92 13
-92 33 0 7 -18 50 -41 97 -67 138 -76 159 -124 290 -26 69 -69 182 -96 252
-27 70 -49 132 -49 139 0 6 -20 31 -45 55 -51 48 -57 50 -240 59 -98 5 -227
15 -382 31 -42 4 -53 9 -53 23 0 23 67 82 105 92 17 4 41 11 54 15 21 6 23 4
19 -13 -5 -18 1 -23 36 -32 112 -30 289 -41 327 -21 10 6 19 17 19 25 0 23 47
18 115 -10 81 -33 189 -33 186 1 -1 14 82 11 86 -3 5 -14 -53 -72 -85 -84 -13
-5 -55 -16 -93 -25 -78 -18 -93 -29 -49 -39 19 -4 53 1 97 16 53 18 77 33 110
68 23 25 42 49 43 52 0 4 -7 26 -15 50 -9 24 -23 109 -31 189 -25 231 -6 690
32 777 29 64 20 86 -48 130 -61 40 -134 66 -210 78 -36 6 -54 25 -23 25 8 0
15 1 15 3 0 1 14 36 31 77 30 73 96 260 125 350 7 25 14 59 14 77 0 17 4 33 9
35 4 2 27 39 51 83 23 44 49 91 56 105 8 14 18 37 24 53 9 25 13 27 52 22 24
-2 34 -2 23 1 -20 6 -35 22 -35 37 0 10 216 1 255 -11z m-315 -18 c0 -24 -26
-27 -62 -8 l-33 18 35 6 c43 7 60 2 60 -16z m-70 -29 c0 -18 -45 -49 -60 -40
-13 8 -13 28 2 43 17 17 58 15 58 -3z m-345 -26 c28 -17 47 -20 91 -17 l55 5
-3 -46 c-3 -45 -2 -46 27 -46 37 -1 36 -12 -4 -36 -17 -10 -31 -23 -31 -28 0
-5 -9 -13 -20 -16 -11 -4 -18 -11 -15 -16 12 -18 61 -8 93 20 37 32 72 31 72
-1 0 -24 -29 -129 -40 -143 -4 -5 -10 -38 -14 -73 -7 -76 -59 -192 -86 -192
-9 0 -29 -9 -43 -20 -34 -27 -37 -26 -34 18 2 36 -2 40 -34 27 -9 -3 -26 3
-39 13 -20 16 -23 29 -27 105 -2 53 0 88 7 92 18 11 0 25 -26 19 -33 -8 -32
18 1 40 14 9 25 23 25 32 0 8 14 20 30 25 22 8 30 17 30 35 0 22 -4 24 -47 24
-43 0 -50 3 -65 30 -9 17 -29 35 -43 40 -14 5 -25 15 -25 21 0 6 18 33 41 60
46 56 68 61 124 28z m3279 -5 c260 -58 364 -111 603 -306 61 -49 133 -126 133
-141 0 -2 16 -22 35 -43 50 -54 168 -253 211 -354 40 -97 87 -267 104 -385 6
-44 16 -104 21 -134 20 -119 2 -475 -26 -521 -4 -6 -15 -6 -31 0 -61 24 -230
61 -283 63 -47 2 -63 -2 -81 -18 -30 -27 -60 -88 -60 -123 0 -41 27 -112 48
-129 49 -38 64 -41 205 -34 75 3 137 3 137 0 0 -3 -8 -30 -19 -60 -49 -143
-194 -380 -298 -485 -138 -141 -332 -275 -485 -334 -292 -113 -724 -60 -1003
124 -74 49 -159 120 -199 166 -17 19 -61 67 -97 105 -140 147 -283 427 -329
646 -89 416 -59 790 92 1124 136 302 296 502 525 654 67 44 184 101 313 151
119 46 356 63 484 34z m-1905 -279 c-1 -16 -4 -41 -9 -55 -7 -23 -8 -24 -14
-5 -4 11 -11 27 -15 35 -4 8 -1 30 6 49 11 27 17 31 24 20 5 -8 8 -27 8 -44z
m53 -249 c-22 -45 -51 -106 -64 -136 -31 -70 -100 -291 -123 -393 -64 -289
-59 -762 10 -1012 14 -49 36 -131 49 -181 14 -50 36 -119 50 -154 34 -84 43
-152 22 -169 -18 -15 -46 -8 -46 12 0 8 -15 48 -34 90 -59 129 -145 453 -147
555 0 20 -7 55 -14 77 -14 38 -14 37 -9 -45 3 -47 15 -132 25 -188 11 -57 18
-111 16 -120 -6 -29 -38 58 -49 133 -5 39 -17 104 -25 145 -17 78 -30 439 -19
485 4 14 11 25 16 25 6 0 10 -57 11 -142 2 -283 15 -246 21 57 l5 300 51 195
c57 219 78 283 121 373 44 90 81 195 81 228 0 22 10 36 43 60 l42 31 3 -73 c3
-67 0 -78 -36 -153z m-102 60 c0 -2 -13 -34 -29 -73 -42 -102 -87 -230 -107
-300 -22 -81 -39 -83 -30 -4 7 65 92 291 134 359 12 19 32 30 32 18z m370
-455 c41 -10 97 -22 123 -26 28 -4 51 -12 54 -21 3 -8 -7 -56 -21 -107 -15
-50 -34 -148 -43 -217 -9 -69 -17 -126 -18 -128 -1 -1 -19 4 -41 11 -22 8
-107 17 -193 20 -139 6 -155 5 -167 -11 -21 -27 -18 106 5 200 10 43 16 80 14
82 -6 5 14 101 33 168 14 47 16 48 54 48 29 0 42 5 50 20 10 19 11 19 43 0 17
-10 66 -28 107 -39z m-199 -552 c10 -10 39 -21 65 -25 68 -10 34 -20 -98 -28
-117 -8 -118 -8 -102 49 4 18 13 21 62 21 40 0 61 -5 73 -17z m299 -205 l0
-66 -35 31 -36 31 -128 0 c-122 0 -129 -1 -124 -19 3 -13 -2 -23 -17 -31 -30
-16 -47 -7 -55 28 -3 17 -13 33 -22 36 -32 13 1 21 85 22 94 0 280 19 289 28
4 3 15 6 25 6 16 0 18 -9 18 -66z m2241 -177 c-45 -23 -66 -63 -66 -128 0 -32
-1 -59 -2 -59 -1 0 -10 14 -19 32 -35 68 13 168 80 168 l31 0 -24 -13z m164
-39 c3 -3 22 -1 40 5 25 7 42 7 59 -1 85 -39 50 -202 -43 -202 -33 0 -54 21
-72 73 -7 20 -15 37 -19 37 -3 0 -38 2 -78 3 -51 2 -76 7 -82 17 -14 21 -13
24 14 53 22 23 30 25 99 23 42 -1 79 -4 82 -8z m-4749 -208 c-42 -21 -52 -20
-43 5 4 10 19 15 44 15 l38 -1 -39 -19z m1928 -559 l28 -29 -8 -236 -7 -236
-34 6 c-21 4 -39 2 -49 -6 -26 -22 -37 2 -20 46 16 44 30 371 16 394 -5 8 -3
22 6 34 8 11 14 28 14 38 0 26 23 22 54 -11z m231 -117 c55 -67 136 -118 173
-109 26 5 35 1 62 -29 18 -19 51 -47 73 -62 23 -16 53 -38 67 -50 57 -50 326
-178 465 -222 70 -22 30 -27 -47 -6 -124 33 -146 37 -171 30 -14 -3 -29 -16
-32 -27 -6 -17 -12 -20 -37 -15 -34 7 -103 40 -166 80 -39 24 -42 30 -42 69 0
42 -3 46 -82 114 -46 38 -93 75 -105 81 -30 17 -70 15 -77 -3 -12 -31 -44 -14
-105 56 -33 39 -61 75 -61 80 0 14 31 59 40 59 4 0 24 -21 45 -46z m95 -243
c30 -28 78 -66 105 -84 92 -62 190 -124 232 -148 24 -13 43 -28 43 -32 0 -23
-138 46 -245 121 -86 62 -255 222 -255 243 0 7 15 -1 33 -18 17 -17 57 -53 87
-82z m-747 2 c-7 -2 -21 -2 -30 0 -10 3 -4 5 12 5 17 0 24 -2 18 -5z m137 -58
c0 -7 -7 -15 -15 -19 -15 -5 -22 24 -9 37 9 9 24 -2 24 -18z m-142 -27 c3 -32
0 -38 -16 -38 -22 0 -32 18 -32 57 0 20 4 24 23 21 18 -2 23 -10 25 -40z
m2185 17 c97 0 177 0 177 -1 0 -6 -165 -57 -238 -74 -95 -21 -309 -43 -325
-33 -5 3 -4 10 2 16 6 6 11 21 11 34 0 26 30 37 85 31 32 -4 34 -2 29 19 -6
23 -5 23 37 16 24 -4 124 -8 222 -8z m272 -15 c-11 -12 -19 -37 -19 -62 -1
-40 -3 -43 -71 -84 -71 -44 -111 -54 -133 -32 -16 16 -15 38 2 38 7 0 19 7 26
15 11 13 8 15 -14 15 -42 0 -32 28 14 40 23 6 78 28 123 50 97 46 95 45 72 20z
m-3331 -110 c79 -22 303 -60 353 -60 17 0 35 -5 39 -12 11 -17 -155 -3 -246
22 -89 23 -145 25 -183 5 -26 -13 -30 -12 -72 18 -24 18 -44 35 -44 40 -2 14
83 7 153 -13z m752 -54 c13 -10 51 -16 102 -17 45 -2 82 -5 82 -8 0 -3 -6 -29
-14 -57 -7 -29 -11 -64 -9 -78 5 -25 3 -26 -20 -21 -42 11 -38 -8 14 -67 l49
-56 -21 -26 c-11 -14 -28 -26 -38 -26 -9 0 -83 68 -163 150 -81 83 -149 150
-152 150 -16 0 -1 -23 44 -68 54 -54 69 -89 22 -50 -113 92 -140 112 -165 120
-38 14 -28 33 17 34 20 0 41 5 47 11 8 8 19 7 37 -3 36 -19 51 -18 87 6 36 24
54 25 81 6z m2024 -44 c0 -60 -118 -84 -277 -56 -29 6 -33 10 -33 38 l0 31
155 3 c145 2 155 1 155 -16z m-1475 -267 c0 -20 -30 -43 -41 -32 -11 11 15 59
29 54 6 -2 12 -12 12 -22z m-460 -95 c-3 -5 -12 -10 -20 -10 -8 0 -17 5 -20
10 -4 6 5 10 20 10 15 0 24 -4 20 -10z"/>
<path d="M4606 6961 c-42 -84 -53 -133 -27 -117 11 7 47 83 67 142 28 83 7 70
-40 -25z"/>
<path d="M6600 6711 c0 -6 6 -13 13 -15 21 -7 510 -16 504 -10 -3 4 -79 10
-169 15 -90 4 -205 11 -255 15 -67 5 -93 3 -93 -5z"/>
<path d="M7230 6673 c13 -3 29 -11 35 -18 14 -18 225 -28 225 -11 0 26 -51 36
-168 35 -64 -1 -106 -4 -92 -6z"/>
<path d="M7206 4328 c26 -131 39 -179 49 -178 15 1 10 104 -8 153 -8 23 -18
54 -21 70 -4 15 -13 27 -20 27 -11 0 -11 -12 0 -72z"/>
<path d="M7265 4071 c-6 -10 5 -62 36 -171 10 -36 21 -85 25 -110 3 -25 14
-79 24 -120 10 -41 23 -108 30 -148 8 -47 17 -75 27 -79 27 -10 30 17 12 85
-23 85 -95 413 -104 472 -11 68 -32 99 -50 71z"/>
<path d="M6760 3575 c0 -2 -19 -76 -41 -162 -23 -87 -50 -191 -60 -231 -10
-40 -26 -101 -37 -135 -11 -34 -29 -98 -42 -142 -12 -44 -31 -103 -42 -132
-11 -29 -26 -74 -33 -100 -7 -26 -19 -63 -26 -80 -15 -37 -4 -58 24 -47 13 4
17 19 17 53 1 31 9 59 25 86 17 28 25 55 25 88 0 27 5 57 10 67 13 25 59 191
71 254 4 27 13 54 19 60 5 5 10 24 10 42 0 17 8 42 19 55 17 22 91 277 91 314
0 8 -7 15 -15 15 -8 0 -15 -2 -15 -5z"/>
<path d="M5978 3141 c-38 -53 -279 -310 -552 -588 -186 -189 -206 -210 -206
-225 0 -23 35 -1 77 49 64 75 341 363 373 388 15 11 62 58 105 105 44 47 102
110 131 140 113 120 133 150 100 150 -8 0 -21 -8 -28 -19z"/>
<path d="M3442 6547 c-36 -43 -192 -438 -192 -486 0 -31 19 7 64 124 24 66 68
176 95 244 49 120 57 147 33 118z"/>
<path d="M6293 6280 c-13 -5 -32 -24 -43 -42 -49 -81 0 -168 95 -168 59 0 109
94 80 151 -30 57 -80 80 -132 59z m122 -120 c9 -15 -23 -62 -38 -57 -13 5 -10
35 5 55 13 15 25 15 33 2z"/>
<path d="M5169 6087 c-37 -24 -79 -97 -79 -137 0 -51 22 -103 58 -137 36 -33
39 -34 97 -28 33 4 98 7 145 8 72 2 90 6 118 26 39 27 52 56 52 115 0 84 -69
146 -163 146 -26 0 -64 7 -84 15 -51 22 -104 19 -144 -8z m21 -34 c-17 -16
-37 -46 -45 -68 l-14 -40 0 40 c-1 53 30 91 77 94 7 1 -1 -11 -18 -26z m182
-16 c4 -7 16 -6 37 2 47 20 61 7 20 -18 -46 -27 -61 -59 -48 -104 12 -45 42
-71 71 -64 42 11 59 31 65 77 6 39 7 41 15 20 5 -13 6 -36 3 -52 -7 -30 -72
-88 -100 -88 -32 0 -73 56 -80 110 -6 46 -25 81 -25 46 0 -22 -17 -29 -40 -16
-14 8 -25 7 -39 -2 -15 -9 -25 -9 -46 0 -24 11 -27 17 -21 45 3 18 12 37 20
42 18 14 159 15 168 2z"/>
<path d="M6645 6070 c-48 -10 -71 -27 -89 -64 -21 -44 -21 -128 1 -173 34 -72
131 -106 189 -68 18 12 50 17 103 19 87 1 119 16 151 69 38 61 17 152 -42 183
-22 12 -61 19 -113 21 -44 1 -100 6 -125 11 -25 4 -58 5 -75 2z m-1 -39 c3 -5
-1 -15 -10 -22 -26 -21 -46 -81 -39 -118 5 -25 3 -32 -7 -29 -14 5 -23 68 -14
103 6 25 44 75 56 75 5 0 11 -4 14 -9z m191 -11 c4 -6 26 -8 55 -4 44 6 51 4
73 -20 37 -40 41 -71 17 -121 -26 -54 -68 -75 -103 -52 -23 15 -57 73 -57 96
0 13 0 13 -105 15 -74 1 -80 3 -83 23 -4 25 31 53 65 53 12 0 25 5 28 10 8 13
102 13 110 0z"/>
<path d="M6880 6003 c-46 -16 -54 -85 -14 -132 14 -17 32 -31 39 -31 24 0 57
43 52 68 -2 12 0 22 4 22 15 0 10 27 -8 48 -20 23 -50 33 -73 25z"/>
<path d="M5955 5870 c-70 -10 -155 -36 -186 -57 -206 -138 -293 -271 -334
-509 -32 -186 -2 -413 73 -544 70 -124 196 -245 307 -296 144 -67 337 -73 458
-14 60 29 165 104 218 156 52 51 125 183 158 284 48 151 47 391 -3 524 -47
124 -82 181 -166 269 -84 89 -151 130 -270 166 -105 31 -156 36 -255 21z m240
-47 c212 -55 372 -233 442 -493 26 -99 24 -291 -5 -394 -37 -128 -87 -219
-169 -306 -187 -199 -423 -219 -643 -56 -95 71 -152 143 -211 264 -26 55 -59
229 -59 313 0 117 28 266 65 346 51 110 23 98 -31 -13 -45 -92 -55 -124 -70
-236 -4 -27 -12 -48 -18 -48 -59 0 -44 154 29 307 75 160 202 277 339 313 83
21 254 23 331 3z"/>
<path d="M5993 5736 c-92 -25 -160 -71 -245 -165 -79 -88 -121 -184 -143 -326
-16 -100 -13 -155 17 -263 36 -135 70 -196 160 -286 95 -94 163 -132 267 -148
119 -19 220 8 326 84 87 64 205 257 226 373 18 97 5 287 -25 374 -67 192 -193
318 -360 361 -98 25 -120 24 -223 -4z m-175 -532 c20 -8 69 -18 107 -20 46 -4
103 -18 168 -42 l98 -37 -4 -37 c-5 -35 -38 -109 -83 -186 -15 -25 -23 -31
-39 -26 -11 4 -60 6 -110 5 -98 -3 -90 -6 -198 81 -24 19 -31 21 -57 11 -26
-10 -32 -9 -41 9 -11 21 -15 133 -5 165 3 11 24 29 45 41 21 12 44 29 51 37
16 19 22 19 68 -1z m516 -104 c-8 -72 -50 -193 -85 -245 -37 -55 -106 -127
-149 -156 -26 -17 -18 -6 27 40 35 35 69 75 77 90 36 66 76 155 76 170 0 10 5
22 12 29 7 7 9 12 5 12 -4 0 0 16 8 36 8 20 15 60 16 88 1 47 1 49 10 21 5
-16 7 -55 3 -85z m91 0 c11 -18 -14 -127 -51 -213 -39 -95 -113 -187 -185
-233 -54 -34 -170 -67 -199 -56 -20 7 -14 11 49 32 162 52 273 181 327 380 26
95 41 119 59 90z m115 -162 c-1 -40 -45 -133 -94 -196 -75 -98 -172 -156 -276
-166 -54 -5 -62 -4 -46 6 10 7 44 30 75 50 101 67 155 126 201 221 36 74 48
89 74 96 53 15 66 13 66 -11z"/>
<path d="M5084 4651 c-49 -30 -77 -77 -82 -138 -7 -81 13 -137 59 -169 35 -24
44 -26 91 -19 29 4 87 8 129 9 95 3 130 17 157 64 21 38 25 61 23 120 -2 52
-46 88 -118 97 -32 3 -82 17 -112 31 -64 29 -105 30 -147 5z m248 -71 c26 1
56 -4 67 -10 25 -13 46 -79 37 -113 -9 -36 -54 -87 -77 -87 -32 0 -77 28 -84
52 -4 13 -17 33 -28 46 -18 19 -31 22 -94 22 -79 0 -84 5 -61 54 8 18 21 27
47 31 20 4 43 8 51 10 8 2 33 1 55 -1 22 -2 61 -4 87 -4z"/>
<path d="M5317 4559 c-19 -11 -47 -60 -47 -83 0 -21 56 -76 77 -76 41 0 59 26
61 84 1 52 -1 57 -28 71 -34 17 -39 18 -63 4z"/>
<path d="M5553 4290 c-31 -12 -63 -68 -63 -107 0 -42 52 -103 86 -103 37 0 91
26 103 48 6 12 11 42 11 67 0 80 -64 124 -137 95z m105 -143 c4 -20 -40 -49
-62 -41 -15 6 -14 10 10 35 30 31 47 33 52 6z"/>
<path d="M6007 4126 c-54 -20 -74 -41 -93 -99 -14 -42 -15 -58 -5 -102 21 -95
65 -114 253 -111 110 2 130 4 149 21 47 43 63 133 33 185 -23 38 -59 56 -128
63 -38 4 -66 13 -80 26 -29 27 -83 34 -129 17z m247 -76 c84 -25 111 -99 63
-171 -46 -69 -134 -43 -160 49 -12 41 -18 47 -48 54 -19 4 -48 5 -65 2 -35 -6
-49 6 -39 36 12 37 53 51 135 46 41 -2 92 -10 114 -16z"/>
<path d="M6190 3993 c-37 -47 -6 -123 49 -123 39 0 74 28 67 53 -3 11 -1 28 4
37 16 29 -15 60 -60 60 -30 0 -43 -6 -60 -27z"/>
<path d="M7081 4745 c-36 -42 -37 -49 -11 -92 26 -44 70 -46 99 -4 26 36 27
72 4 99 -32 37 -57 36 -92 -3z"/>
<path d="M8506 6737 c3 -10 9 -15 12 -12 3 3 0 11 -7 18 -10 9 -11 8 -5 -6z"/>
<path d="M860 3129 l-45 -6 49 -1 c39 -2 47 -5 42 -18 -3 -9 -6 -18 -6 -20 0
-2 -13 -4 -30 -4 -22 0 -28 -4 -24 -15 4 -10 0 -15 -12 -16 -13 0 -11 -4 9
-11 15 -5 27 -17 27 -26 0 -13 -3 -12 -14 4 -8 10 -18 16 -22 12 -4 -5 0 -16
9 -26 10 -10 17 -22 17 -27 0 -28 151 -291 276 -481 284 -432 684 -855 1109
-1174 223 -167 397 -278 648 -412 84 -45 170 -91 191 -102 22 -12 40 -25 40
-31 1 -5 -20 -17 -46 -25 -26 -8 -50 -18 -54 -23 -4 -4 -16 -7 -26 -7 -11 0
-16 -4 -13 -10 3 -5 0 -8 -7 -5 -18 6 -124 -30 -120 -41 1 -5 6 -9 11 -9 5 0
13 -4 18 -9 5 -5 3 -6 -4 -2 -7 4 -13 3 -13 -2 0 -10 157 -86 313 -152 429
-181 905 -301 1412 -357 226 -25 795 -25 1015 0 470 54 838 140 1275 300 189
69 563 248 755 362 242 144 500 327 710 502 334 281 674 661 929 1041 169 252
397 676 386 719 -4 18 -2 21 12 17 10 -2 8 1 -4 7 -21 11 -72 -1 -168 -41 -32
-14 -99 -35 -110 -35 -5 0 -14 -4 -18 -10 -5 -6 -6 -1 -2 10 10 25 16 85 9 85
-2 0 -9 -10 -14 -22 -7 -18 -9 -19 -9 -5 -1 12 -9 17 -31 17 -51 0 -33 36 20
42 32 3 31 4 -12 8 l-47 5 -30 -60 c-443 -882 -1182 -1626 -2057 -2070 -1118
-568 -2399 -660 -3600 -260 -251 84 -573 231 -824 375 -746 430 -1380 1087
-1790 1855 -30 55 -56 102 -59 105 -3 3 -7 12 -9 20 -7 30 -17 35 -62 29z"/>
<path d="M3858 1366 c-19 -18 -110 -379 -102 -400 3 -9 25 -21 48 -26 22 -6
82 -22 132 -36 118 -31 138 -31 152 1 26 57 13 69 -109 100 -50 13 -93 26 -96
29 -3 3 -2 17 1 31 5 18 12 25 21 21 8 -3 41 -11 74 -17 67 -14 85 -7 94 37 7
38 -19 58 -91 74 -63 13 -74 25 -53 59 8 12 22 11 95 -8 47 -11 97 -21 110
-21 30 0 49 29 44 68 -3 26 -9 29 -128 59 -179 46 -176 46 -192 29z"/>
<path d="M6218 1356 c-113 -31 -114 -33 -99 -163 8 -78 17 -112 28 -120 26
-20 74 -15 99 8 40 38 98 5 74 -42 -14 -24 -49 -33 -83 -20 -34 13 -51 7 -66
-25 -19 -42 -13 -54 35 -76 156 -69 303 112 192 237 -33 39 -84 59 -133 53
-26 -3 -35 0 -39 15 -2 10 1 20 7 22 7 2 38 11 70 20 53 15 57 18 57 46 0 43
-17 69 -43 68 -12 -1 -57 -11 -99 -23z"/>
<path d="M5844 1276 c-48 -21 -86 -78 -92 -135 -5 -59 10 -91 44 -91 46 0 64
17 64 60 0 64 55 94 95 50 28 -31 12 -64 -74 -148 -87 -87 -105 -125 -77 -167
10 -15 26 -25 39 -25 48 0 281 50 289 62 12 20 10 52 -6 73 -12 17 -20 18 -84
9 l-71 -10 34 28 c40 33 75 102 75 147 0 44 -33 105 -71 132 -40 28 -121 35
-165 15z"/>
<path d="M5495 1226 c-69 -31 -98 -88 -97 -196 1 -127 53 -227 128 -246 40
-10 114 2 143 23 47 34 66 88 66 183 0 74 -4 92 -30 145 -48 96 -125 129 -210
91z m91 -104 c35 -23 56 -157 32 -202 -17 -32 -58 -38 -81 -12 -38 42 -41 201
-4 215 18 8 41 8 53 -1z"/>
<path d="M4548 1219 c-10 -5 -20 -28 -24 -54 -5 -38 -10 -45 -29 -45 -41 0
-52 -84 -13 -99 21 -8 22 -13 19 -84 -1 -44 2 -84 9 -97 23 -43 141 -69 154
-34 17 43 -1 84 -36 84 -15 0 -18 9 -18 54 l0 55 48 3 47 3 0 45 c0 43 -1 45
-37 53 -37 9 -38 10 -38 57 0 27 -3 51 -7 53 -21 12 -60 15 -75 6z"/>
<path d="M5125 1206 c-36 -15 -82 -67 -91 -100 -3 -13 -4 -40 -2 -62 3 -38 4
-39 43 -42 45 -4 65 14 65 60 0 49 68 66 95 24 15 -22 15 -27 0 -56 -9 -18
-45 -50 -84 -75 -115 -74 -146 -130 -100 -176 21 -21 27 -22 162 -15 77 3 146
11 154 17 18 16 16 64 -4 84 -12 13 -31 16 -80 13 -47 -2 -60 0 -46 7 42 23
101 92 112 130 35 127 -102 244 -224 191z"/>
<path d="M4205 1135 c-20 -19 -25 -34 -25 -73 0 -55 25 -87 95 -118 l40 -18
-29 -4 c-19 -2 -39 4 -57 17 -35 26 -51 26 -72 3 -31 -34 -21 -58 35 -86 107
-54 203 -27 215 60 7 57 -8 80 -75 112 -57 27 -69 50 -23 44 13 -2 35 -11 49
-20 24 -15 25 -15 48 11 29 34 23 51 -30 77 -62 29 -139 27 -171 -5z"/>
<path d="M4731 876 c-7 -8 -11 -31 -9 -52 2 -31 8 -39 31 -47 48 -16 77 4 77
52 0 30 -5 43 -19 51 -28 14 -67 12 -80 -4z"/>
</g>
</svg>
